<?xml version="1.0" encoding="utf-8"?>
<!-- Generator: Adobe Illustrator 24.0.2, SVG Export Plug-In . SVG Version: 6.00 Build 0)  -->
<svg version="1.1" id="Layer_1" xmlns="http://www.w3.org/2000/svg" xmlns:xlink="http://www.w3.org/1999/xlink" x="0px" y="0px"
	 viewBox="0 0 128 128" style="enable-background:new 0 0 128 128;" xml:space="preserve">
<style type="text/css">
	.st0{fill:#ECEBE9;}
	.st1{fill:#F5E2E1;}
</style>
<g>
	<path class="st0" d="M98.5,127.3c-0.7-1.5-1.4-2.9-2.2-4.4c-3.1-6.1-6.2-12.2-9.3-18.3c-6.2-12.2-12.4-24.4-18.6-36.5
		c-0.1-0.3-0.2-0.5,0-0.8c2.3-5.2,4.6-10.4,6.9-15.6c0-0.1,0.1-0.2,0.2-0.3c0.8,1.5,1.5,2.9,2.2,4.4c6.4,12.7,12.9,25.4,19.3,38.1
		c3.6,7,7.1,14,10.7,21c0.2,0.3,0.1,0.5-0.1,0.7c-2.9,3.8-5.9,7.5-8.8,11.3c-0.1,0.1-0.3,0.3-0.3,0.5
		C98.6,127.3,98.5,127.3,98.5,127.3z"/>
	<path class="st0" d="M109.1,84.3c-0.2,0.2-0.1,0.5-0.1,0.7c0,4.3,0,8.6,0,12.9c0,0.6-0.2,0.7-0.7,0.7c-2.2,0-4.3,0-6.5,0
		c-0.4,0-0.6-0.1-0.8-0.5c-2.3-4.6-4.7-9.2-7-13.8c-0.3-0.5,0-0.5,0.4-0.5c3,0,6,0,9,0c1.9,0,3.8,0,5.7,0
		C109.1,84,109.1,84.1,109.1,84.3z"/>
	<path class="st1" d="M128.1,98.5L128.1,98.5l-0.1,0c0-4.9,0-9.7,0-14.6c0,0,0.1,0,0.1,0c0.2,0.2,0.2,0.5,0.2,0.8c0,4.3,0,8.7,0,13
		C128.3,98,128.4,98.3,128.1,98.5z"/>
	<path class="st0" d="M82.3,0.2c1.2,1.3,2.4,2.7,3.6,4c1.9,2.1,3.8,4.2,5.7,6.3c0.4,0.4,0.5,0.8,0.2,1.3c-3.1,7-6.2,13.9-9.3,20.9
		c-3.5,7.9-7,15.8-10.5,23.7c-3.7,8.5-7.5,16.9-11.2,25.4c-0.2,0.5-0.5,0.7-1,0.6c-4.5,0-8.9,0-13.4,0c-0.7,0-0.7,0-0.4-0.6
		c2.7-6.1,5.4-12.1,8.1-18.2c3.7-8.3,7.3-16.5,11-24.8c2.9-6.5,5.8-13,8.7-19.6C76.5,13,79.3,6.7,82,0.5C82.1,0.4,82.1,0.2,82.3,0.2
		z"/>
	<path class="st0" d="M19.7,98.5c0-4.9,0-9.7,0-14.6c0.2,0,0.4,0,0.6,0c17.9,0,35.8,0,53.7,0c0.5,0,0.8,0.1,1,0.6
		c2.3,4.5,4.5,9,6.8,13.4c0.3,0.6,0.2,0.7-0.4,0.7c-0.5,0-1,0-1.4,0c-19.8,0-39.6,0-59.5,0C20.3,98.6,20,98.7,19.7,98.5z"/>
	<path class="st0" d="M51.5,4.2c1.8,3.5,3.5,6.9,5.3,10.4c3,5.9,6,11.8,9,17.7c0.1,0.3,0.2,0.5,0.1,0.8c-2.3,5.2-4.7,10.5-7,15.7
		c0,0-0.1,0.1-0.1,0.2c-0.4-0.9-0.9-1.7-1.3-2.5c-3.7-7.2-7.3-14.4-11-21.7c-1.4-2.7-2.7-5.4-4.1-8.1c-0.2-0.4-0.2-0.7,0.1-1
		c2.9-3.7,5.8-7.4,8.7-11.1C51.2,4.5,51.3,4.4,51.5,4.2z"/>
	<g>
		<path class="st0" d="M19.5,107c0-1.8,0.5-3.1,1.5-4.1s2.4-1.5,4.1-1.5c1.8,0,3.2,0.5,4.2,1.4c1,1,1.5,2.3,1.5,4.1
			c0,1.3-0.2,2.3-0.6,3.1c-0.4,0.8-1,1.4-1.8,1.9c-0.8,0.4-1.8,0.7-3,0.7c-1.2,0-2.2-0.2-3-0.6c-0.8-0.4-1.4-1-1.9-1.8
			S19.5,108.3,19.5,107z M22.9,107c0,1.1,0.2,1.9,0.6,2.4s1,0.7,1.7,0.7c0.7,0,1.3-0.2,1.7-0.7c0.4-0.5,0.6-1.3,0.6-2.5
			c0-1-0.2-1.8-0.6-2.2c-0.4-0.5-1-0.7-1.7-0.7c-0.7,0-1.2,0.2-1.6,0.7C23.1,105.1,22.9,105.9,22.9,107z"/>
		<path class="st0" d="M39.6,101.6h3.3v6.4c0,0.6-0.1,1.2-0.3,1.8c-0.2,0.6-0.5,1.1-0.9,1.5s-0.9,0.7-1.3,0.9
			c-0.6,0.2-1.4,0.4-2.3,0.4c-0.5,0-1.1,0-1.7-0.1c-0.6-0.1-1.1-0.2-1.6-0.4c-0.4-0.2-0.8-0.5-1.1-0.9c-0.3-0.4-0.6-0.8-0.7-1.2
			c-0.2-0.7-0.3-1.3-0.3-1.8v-6.4h3.3v6.6c0,0.6,0.2,1,0.5,1.4c0.3,0.3,0.8,0.5,1.4,0.5c0.6,0,1-0.2,1.4-0.5
			c0.3-0.3,0.5-0.8,0.5-1.4V101.6z"/>
		<path class="st0" d="M51.2,110.6h-3.8l-0.5,1.8h-3.4l4.1-10.8h3.6l4.1,10.8h-3.5L51.2,110.6z M50.5,108.3l-1.2-3.9l-1.2,3.9H50.5z
			"/>
		<path class="st0" d="M56.3,101.6h3.3v3.8h3.6v-3.8h3.4v10.8h-3.4V108h-3.6v4.4h-3.3V101.6z"/>
		<path class="st0" d="M69,101.6h3.3v10.8H69V101.6z"/>
		<path class="st0" d="M74.8,101.6H81c1,0,1.8,0.3,2.4,0.8c0.6,0.5,0.8,1.2,0.8,1.9c0,0.6-0.2,1.2-0.6,1.6c-0.3,0.3-0.7,0.5-1.2,0.7
			c0.8,0.2,1.3,0.5,1.7,1c0.4,0.5,0.5,1,0.5,1.7c0,0.6-0.1,1.1-0.4,1.5c-0.3,0.4-0.6,0.8-1.1,1.1c-0.3,0.2-0.7,0.3-1.3,0.4
			c-0.8,0.1-1.3,0.1-1.5,0.1h-5.8V101.6z M78.2,105.8h1.5c0.5,0,0.9-0.1,1.1-0.3c0.2-0.2,0.3-0.4,0.3-0.8c0-0.3-0.1-0.6-0.3-0.7
			s-0.6-0.3-1.1-0.3h-1.5V105.8z M78.2,110.1h1.7c0.6,0,1-0.1,1.2-0.3c0.2-0.2,0.4-0.5,0.4-0.8c0-0.3-0.1-0.6-0.4-0.8
			c-0.2-0.2-0.6-0.3-1.2-0.3h-1.7V110.1z"/>
	</g>
</g>
</svg>
